<svg width="256" height="312" xmlns="http://www.w3.org/2000/svg" preserveAspectRatio="xMidYMid">

 <g>
  <title>background</title>
  <rect fill="none" id="canvas_background" height="402" width="582" y="-1" x="-1"/>
 </g>
 <g>
  <title>Layer 1</title>
  <g stroke="null" id="svg_1">
   <path stroke="null" id="svg_2" fill="#B7CA9D" d="m36.205683,200.592381l1.7425,1.97793l88.01787,24.949941l0.398789,-15.465488l-61.64414,-15.469492l-3.016543,-1.088262l-25.498476,5.095371"/>
   <path stroke="null" id="svg_3" fill="#B7CA9D" d="m214.791111,200.592381l-89.891698,30.005273l-0.267461,-18.54289l61.643339,-15.469492l2.686621,-3.02375l25.829199,7.030859"/>
   <path stroke="null" id="svg_4" fill="#3C4929" d="m124.631952,94.596972l61.643339,14.366816l27.110449,-1.286055l1.405371,-2.717051l-85.887792,-30.915761l-4.271367,20.552051"/>
   <path stroke="null" id="svg_5" fill="#759C3E" d="m64.720703,196.585272l-28.515019,4.007109l-0.793574,-2.960488l0,-89.553769l0.793574,-3.117441l25.765937,1.91627l2.749082,2.090039l0,87.61828"/>
   <path stroke="null" id="svg_6" fill="#3C4929" d="m126.364843,94.596972l-61.64414,14.366816l-28.515019,-4.003105l1.074648,-1.687246l88.685722,-25.240625l0.398789,16.56416"/>
   <path stroke="null" id="svg_7" fill="#4B612C" d="m125.376679,28l-102.376679,51.675214l0.048848,146.233065l102.327831,51.647988l1.524687,-2.315059l0,-244.238279l-1.524687,-3.00293l0,0zm-29.936406,190.369725l-59.234589,-17.777344l0,-95.631698l59.234589,-17.770937l0,131.179979l0,0z"/>
   <path stroke="null" id="svg_8" fill="#4B612C" d="m186.275291,196.585272l28.51582,4.007109l1.597559,-2.826758l0,-90.08789l-1.597559,-2.717051l-28.51582,4.006309l0,87.61828"/>
   <path stroke="null" id="svg_9" fill="#759C3E" d="m125.376679,277.556267l102.574472,-51.644785l0.048848,-146.232264l-102.623319,-51.679218l0,249.556267l0,0zm30.179043,-190.366522l59.23539,17.770937l0,95.631698l-59.23539,17.777344l0,-131.179979l0,0z"/>
  </g>
 </g>
</svg>