<svg width="550" height="512" xmlns="http://www.w3.org/2000/svg">
 <g>
  <title>background</title>
  <rect x="-1" y="-1" width="552" height="514" id="canvas_background" fill="none"/>
 </g>

 <g>
  <title>Layer 1</title>
  <g stroke="null" id="svg_1">
   <path stroke="null" fill=" #5294CF" d="m461.00001,97.38536l0,38.37214c0,33.80643 -84.20554,61.38536 -188.00001,61.38536s-188,-27.57893 -188,-61.38536l0,-38.37214c0,-33.80643 84.20554,-61.38536 188,-61.38536s188.00001,27.57893 188.00001,61.38536z" class="fa-secondary" id="svg_2"/>
   <path stroke="null" fill="#2D72B8" d="m85,318.00001l0,86.32893c0,33.80642 84.20554,61.38535 188,61.38535s188.00001,-27.57893 188.00001,-61.38535l0,-86.32893c-40.39482,27.81393 -114.31911,40.7641 -188.00001,40.7641s-147.61357,-12.95017 -188,-40.7641zm188,-93.52161c-73.68089,0 -147.61357,-12.95018 -188,-40.76411l0,86.32893c0,33.80643 84.20554,61.38536 188,61.38536s188.00001,-27.57893 188.00001,-61.38536l0,-86.32893c-40.39482,27.81393 -114.31911,40.76411 -188.00001,40.76411z" id="svg_3"/>
  </g>
 </g>
</svg>