<svg width="32" height="32" xmlns="http://www.w3.org/2000/svg">
 <g>
  <title>background</title>
  <rect fill="none" id="canvas_background" height="34" width="34" y="-1" x="-1"/>
 </g>
 <g>
  <title>Layer 1</title>
  <g fill-rule="evenodd" fill="none" id="Page-1">
   <g fill="#ffffff" id="dep">
    <g id="Page-1">
     <path id="Shape" d="m9.309525,24.111137c0,0.71394 -0.25,1.32079 -0.75,1.82054c-0.5,0.49976 -1.10715,0.74964 -1.82143,0.74964c-0.71429,0 -1.32143,-0.24988 -1.82143,-0.74964c-0.5,-0.49975 -0.75,-1.1066 -0.75,-1.82054c0,-0.71394 0.25,-1.32079 0.75,-1.82055c0.5,-0.49975 1.10714,-0.74963 1.82143,-0.74963c0.71428,0 1.32143,0.24988 1.82143,0.74963c0.5,0.49976 0.75,1.10661 0.75,1.82055l0,0l0,0zm0,-6.85382c0,0.71394 -0.25,1.32079 -0.75,1.82055c-0.5,0.49975 -1.10715,0.74963 -1.82143,0.74963c-0.71429,0 -1.32143,-0.24988 -1.82143,-0.74963c-0.5,-0.49976 -0.75,-1.10661 -0.75,-1.82055c0,-0.71394 0.25,-1.32079 0.75,-1.82055c0.5,-0.49975 1.10714,-0.74963 1.82143,-0.74963c0.71428,0 1.32143,0.24988 1.82143,0.74963c0.5,0.49976 0.75,1.10661 0.75,1.82055l0,0l0,0zm18.85714,5.56873l0,2.57018c0,0.11601 -0.04241,0.21641 -0.12723,0.30119c-0.08482,0.08478 -0.18527,0.12717 -0.30134,0.12717l-16.28572,0c-0.11607,0 -0.21651,-0.04239 -0.30133,-0.12717c-0.08483,-0.08478 -0.12724,-0.18518 -0.12724,-0.30119l0,-2.57018c0,-0.11602 0.04241,-0.21642 0.12724,-0.3012c0.08482,-0.08478 0.18526,-0.12717 0.30133,-0.12717l16.28572,0c0.11607,0 0.21652,0.04239 0.30134,0.12717c0.08482,0.08478 0.12723,0.18518 0.12723,0.3012l0,0l0,0zm-18.85714,-12.42255c0,0.71394 -0.25,1.32079 -0.75,1.82055c-0.5,0.49975 -1.10715,0.74963 -1.82143,0.74963c-0.71429,0 -1.32143,-0.24988 -1.82143,-0.74963c-0.5,-0.49976 -0.75,-1.10661 -0.75,-1.82055c0,-0.71394 0.25,-1.32079 0.75,-1.82054c0.5,-0.49976 1.10714,-0.74964 1.82143,-0.74964c0.71428,0 1.32143,0.24988 1.82143,0.74964c0.5,0.49975 0.75,1.1066 0.75,1.82054l0,0l0,0zm18.85714,5.56873l0,2.57018c0,0.11602 -0.04241,0.21641 -0.12723,0.30119c-0.08482,0.08478 -0.18527,0.12717 -0.30134,0.12717l-16.28572,0c-0.11607,0 -0.21651,-0.04239 -0.30133,-0.12717c-0.08483,-0.08478 -0.12724,-0.18517 -0.12724,-0.30119l0,-2.57018c0,-0.11602 0.04241,-0.21641 0.12724,-0.30119c0.08482,-0.08478 0.18526,-0.12717 0.30133,-0.12717l16.28572,0c0.11607,0 0.21652,0.04239 0.30134,0.12717c0.08482,0.08478 0.12723,0.18517 0.12723,0.30119l0,0l0,0zm0,-6.85382l0,2.57018c0,0.11602 -0.04241,0.21642 -0.12723,0.3012c-0.08482,0.08478 -0.18527,0.12717 -0.30134,0.12717l-16.28572,0c-0.11607,0 -0.21651,-0.04239 -0.30133,-0.12717c-0.08483,-0.08478 -0.12724,-0.18518 -0.12724,-0.3012l0,-2.57018c0,-0.11601 0.04241,-0.21641 0.12724,-0.30119c0.08482,-0.08478 0.18526,-0.12717 0.30133,-0.12717l16.28572,0c0.11607,0 0.21652,0.04239 0.30134,0.12717c0.08482,0.08478 0.12723,0.18518 0.12723,0.30119l0,0l0,0z"/>
    </g>
   </g>
  </g>
 </g>
</svg>