<svg width="18.453" height="18.453" xmlns="http://www.w3.org/2000/svg">

 <g>
  <title>background</title>
  <rect fill="none" id="canvas_background" height="402" width="582" y="-1" x="-1"/>
 </g>
 <g>
  <title>Layer 1</title>
  <g stroke="null" id="svg_1">
   <g stroke="null" id="svg_2">
    <rect stroke="null" stroke-dasharray="2,2" id="svg_3" fill="#ccc" height="1.034276" width="6.38088" y="5.387513" x="5.008238"/>
    <path stroke="null" stroke-dasharray="2,2" id="svg_4" fill="#ccc" d="m14.514431,13.163968c0.494654,-0.873785 0.35122,-1.987144 -0.368277,-2.705865c-0.42565,-0.42565 -0.991634,-0.660572 -1.595608,-0.660572c-0.603974,0 -1.170733,0.234922 -1.596383,0.660572s-0.660572,0.991634 -0.660572,1.596383c0,0.602423 0.234922,1.169182 0.660572,1.596383c0.42565,0.4241 0.991634,0.659022 1.594832,0.659022c0.393087,0 0.773769,-0.100016 1.111808,-0.290745l2.529092,2.529092l0.853627,-0.854402l-2.529092,-2.529868zm-1.014118,-0.160491c-0.505508,0.505508 -1.392474,0.505508 -1.897982,0c-0.523341,-0.524116 -0.523341,-1.374642 0,-1.898758c0.252754,-0.252754 0.590794,-0.392312 0.949766,-0.392312s0.695462,0.139558 0.948991,0.392312s0.393087,0.590794 0.393087,0.949766s-0.140333,0.695462 -0.393862,0.948991z"/>
    <path stroke="null" stroke-dasharray="2,2" id="svg_5" fill="#ccc" d="m13.242907,14.878975l-8.896792,0c-0.141108,0 -0.25508,-0.114747 -0.25508,-0.254305l0,-11.113431c0,-0.141108 0.113972,-0.25508 0.25508,-0.25508l8.896792,0c0.141108,0 0.254305,0.113972 0.254305,0.25508l0,5.669137c0.368277,0.080633 0.711743,0.238023 1.015669,0.462866l0,-6.132002c0,-0.700114 -0.569085,-1.269973 -1.269973,-1.269973l-8.896792,0c-0.700114,0 -1.269973,0.56986 -1.269973,1.269973l0,11.113431c0,0.699338 0.56986,1.269198 1.269973,1.269198l8.896792,0c0.531094,0 0.782297,-0.125602 0.971475,-0.589243l-0.46054,-0.46054c-0.169795,0.071329 -0.438056,0.034889 -0.510936,0.034889z"/>
    <rect stroke="null" stroke-dasharray="2,2" id="svg_6" fill="#ccc" height="1.034276" width="6.38088" y="8.302715" x="5.008238"/>
   </g>
  </g>
  <g id="svg_7"/>
  <g id="svg_8"/>
  <g id="svg_9"/>
  <g id="svg_10"/>
  <g id="svg_11"/>
  <g id="svg_12"/>
  <g id="svg_13"/>
  <g id="svg_14"/>
  <g id="svg_15"/>
  <g id="svg_16"/>
  <g id="svg_17"/>
  <g id="svg_18"/>
  <g id="svg_19"/>
  <g id="svg_20"/>
  <g id="svg_21"/>
 </g>
</svg>