<svg xmlns="http://www.w3.org/2000/svg" version="1.0" width="512px" height="512px" viewBox="0 0 5120 5120" preserveAspectRatio="xMidYMid meet">
<g id="layer101" fill="#454545" stroke="none">
<path d="M1228 3970 l-596 -5 -81 -79 -81 -78 0 -1438 0 -1437 82 -82 83 -81 1925 0 1925 0 78 78 77 77 0 748 c0 625 -2 747 -14 747 -7 0 -81 -119 -165 -265 l-151 -265 0 -400 0 -400 -1755 0 -1755 0 0 1280 0 1280 414 0 413 0 102 156 c56 86 100 159 99 163 -2 3 -272 4 -600 1z" fill="#c5c5c5"/>
<path d="M1110 2960 l0 -160 400 0 399 0 -35 78 c-19 42 -52 114 -71 160 l-36 82 -329 0 -328 0 0 -160z" fill="#c5c5c5"/>
<path d="M1110 2310 l0 -160 544 0 544 0 -69 151 c-38 83 -69 155 -69 160 0 5 -196 9 -475 9 l-475 0 0 -160z" fill="#c5c5c5"/>
<path d="M1110 1660 l0 -160 665 0 c366 0 665 3 665 7 0 4 -30 76 -67 160 l-68 152 -597 1 -598 0 0 -160z" fill="#c5c5c5"/>
</g>
<g id="layer102" fill="#ff7300" stroke="none">
<path d="M2500 4338 c0 -2 119 -273 264 -603 l264 -600 -429 -3 c-400 -2 -429 -3 -428 -20 0 -9 163 -372 363 -807 l362 -790 467 -3 c257 -1 467 1 467 5 -1 5 -133 219 -294 478 l-293 470 554 3 c304 1 553 6 553 11 0 13 -1818 1856 -1835 1859 -8 2 -15 2 -15 0z"/>
</g>


</svg>