<svg width="128" height="128" xmlns="http://www.w3.org/2000/svg" preserveAspectRatio="xMidYMid meet">

 <g>
  <title>background</title>
  <rect fill="none" id="canvas_background" height="130" width="130" y="-1" x="-1"/>
 </g>
 <g>
  <title>Layer 1</title>
  <g stroke="null" id="svg_6">
   <g fill="#454545" id="layer101">
    <path stroke="null" id="svg_1" fill="#c5c5c5" d="m23.397416,107.1498l-18.26214,-0.153206l-2.481935,-2.420653l-2.481935,-2.390012l0,-44.06201l0,-44.031369l2.512576,-2.512576l2.543218,-2.481935l58.984262,0l58.984262,0l2.390012,2.390012l2.35937,2.35937l0,22.919599c0,19.150735 -0.061282,22.888958 -0.428976,22.888958c-0.214488,0 -2.481935,-3.6463 -5.055794,-8.119911l-4.626817,-8.119911l0,-12.25647l0,-12.25647l-53.775262,0l-53.775262,0l0,39.220704l0,39.220704l12.685447,0l12.654805,0l3.1254,4.780023c1.715906,2.635141 3.064118,4.871947 3.033476,4.994512c-0.061282,0.091924 -8.3344,0.122565 -18.384705,0.030641z"/>
    <path stroke="null" id="svg_2" fill="#c5c5c5" d="m19.781757,76.202213l0,-4.902588l12.25647,0l12.225829,0l-1.072441,2.390012c-0.582182,1.286929 -1.593341,3.493094 -2.175523,4.902588l-1.103082,2.512576l-10.080947,0l-10.050305,0l0,-4.902588z"/>
    <path stroke="null" id="svg_3" fill="#c5c5c5" d="m19.781757,56.285449l0,-4.902588l16.668799,0l16.668799,0l-2.114241,4.626817c-1.164365,2.543218 -2.114241,4.749382 -2.114241,4.902588c0,0.153206 -6.00567,0.275771 -14.554558,0.275771l-14.554558,0l0,-4.902588z"/>
    <path stroke="null" id="svg_4" fill="#c5c5c5" d="m19.781757,36.368685l0,-4.902588l20.376382,0c11.21467,0 20.376382,0.091924 20.376382,0.214488c0,0.122565 -0.919235,2.328729 -2.052959,4.902588l-2.0836,4.657459l-18.292782,0.030641l-18.323423,0l0,-4.902588z"/>
   </g>
   <g fill="#ff7300" id="layer102">
    <path stroke="null" id="svg_5" d="m62.37299,118.425752c0,-0.061282 3.6463,-8.365041 8.08927,-18.476629l8.08927,-18.384705l-13.145064,-0.091924c-12.25647,-0.061282 -13.145064,-0.091924 -13.114423,-0.612824c0,-0.275771 4.994512,-11.398517 11.122747,-24.727428l11.092105,-24.206528l14.309429,-0.091924c7.874782,-0.030641 14.309429,0.030641 14.309429,0.153206c-0.030641,0.153206 -4.075276,6.710417 -9.008506,14.646482l-8.977864,14.401352l16.975211,0.091924c9.314917,0.030641 16.94457,0.183847 16.94457,0.337053c0,0.398335 -55.705657,56.870021 -56.226557,56.961945c-0.245129,0.061282 -0.459618,0.061282 -0.459618,0z"/>
   </g>
  </g>
 </g>
</svg>